<?xml version="1.0" standalone="no"?>
<!DOCTYPE svg PUBLIC "-//W3C//DTD SVG 20010904//EN"
 "http://www.w3.org/TR/2001/REC-SVG-20010904/DTD/svg10.dtd">
<svg version="1.0" xmlns="http://www.w3.org/2000/svg"
 width="197.000000pt" height="196.000000pt" viewBox="0 0 197.000000 196.000000"
 preserveAspectRatio="xMidYMid meet">

<g transform="translate(0.000000,196.000000) scale(0.100000,-0.100000)"
fill="#000000" stroke="none">
<path d="M809 1935 c-375 -68 -674 -346 -775 -720 -29 -108 -27 -381 4 -489
98 -341 361 -599 707 -692 107 -29 380 -27 491 3 282 77 519 276 639 537 60
129 77 205 82 371 4 126 2 165 -16 242 -72 329 -317 602 -638 712 -145 49
-340 63 -494 36z m331 -16 c100 -15 252 -71 342 -125 94 -57 236 -190 295
-279 173 -259 213 -544 116 -837 -77 -235 -255 -440 -478 -550 -142 -71 -271
-101 -430 -101 -159 0 -289 30 -430 101 -98 48 -149 85 -234 166 -194 187
-294 423 -293 691 1 517 426 941 947 944 55 1 129 -4 165 -10z"/>
<path d="M1023 1783 c-9 -3 -13 -32 -13 -96 l0 -92 39 -27 c21 -15 48 -47 60
-70 l21 -43 0 54 c0 43 -5 59 -27 85 -33 39 -54 89 -62 147 -4 30 -10 44 -18
42z"/>
<path d="M934 1771 c13 -20 -18 -114 -52 -164 l-37 -52 -2 -120 c-2 -66 -4
-311 -5 -545 -3 -418 -3 -426 -25 -467 -35 -65 -93 -97 -198 -111 l-60 -8 46
-27 c105 -62 225 -21 284 98 l30 60 3 438 3 438 -30 34 c-58 67 -50 149 22
210 22 19 44 35 49 35 4 0 8 43 8 95 0 89 -1 95 -21 95 -11 0 -18 -4 -15 -9z"/>
<path d="M630 1689 c-97 -65 -171 -143 -211 -225 -34 -70 -39 -220 -10 -336
25 -103 103 -260 176 -355 51 -67 54 -73 32 -73 -42 0 -130 31 -220 77 -94 49
-152 104 -185 176 -45 98 -43 97 -37 30 7 -75 46 -193 82 -247 40 -61 111
-133 185 -188 38 -28 68 -52 68 -54 0 -4 -17 1 -65 19 -40 14 -110 62 -164
112 -39 36 -43 38 -36 15 15 -50 60 -116 125 -183 l66 -67 75 0 c126 0 211 36
243 104 14 31 15 71 9 371 l-6 336 -47 24 c-92 46 -150 144 -150 249 0 60 42
139 111 212 34 35 60 64 56 64 -3 0 -47 -27 -97 -61z"/>
<path d="M1318 1687 c70 -74 112 -153 112 -213 0 -105 -58 -203 -150 -249
l-47 -24 -6 -336 c-6 -299 -5 -341 9 -371 32 -68 117 -104 243 -104 l75 0 66
68 c65 65 110 132 125 181 6 20 -4 15 -55 -31 -62 -56 -122 -91 -180 -108 -16
-5 -30 -7 -30 -6 0 2 31 26 69 54 126 95 201 191 240 310 19 60 39 182 29 182
-3 0 -15 -27 -27 -59 -31 -87 -93 -150 -199 -204 -89 -46 -177 -77 -219 -77
-22 0 -19 6 32 73 73 95 151 252 176 355 29 116 24 266 -10 336 -37 75 -110
156 -192 212 -117 81 -130 83 -61 11z"/>
<path d="M388 1523 c-86 -96 -120 -194 -122 -350 -1 -99 -2 -110 -17 -102 -15
8 -31 39 -43 84 -3 11 -4 -12 -1 -52 5 -97 30 -149 109 -227 69 -67 159 -119
228 -131 l38 -6 -51 67 c-56 74 -151 256 -169 324 -27 99 -8 239 50 367 16 35
25 63 21 63 -5 0 -24 -17 -43 -37z"/>
<path d="M1580 1497 c58 -128 77 -268 50 -367 -18 -68 -113 -250 -169 -324
l-51 -67 38 6 c69 12 159 64 228 131 79 78 104 130 109 227 3 52 2 63 -4 40
-9 -36 -37 -83 -49 -83 -4 0 -8 51 -8 113 -1 156 -35 253 -122 350 -19 20 -38
37 -43 37 -4 0 5 -28 21 -63z"/>
<path d="M933 1530 c-40 -24 -53 -48 -53 -98 0 -30 7 -47 29 -71 25 -27 36
-31 78 -31 51 0 82 18 102 57 26 50 2 122 -49 148 -39 20 -68 19 -107 -5z
m125 -36 c43 -49 22 -122 -42 -144 -82 -27 -150 68 -100 138 34 48 102 51 142
6z"/>
<path d="M950 1480 c-39 -39 -15 -110 38 -110 29 0 62 34 62 65 0 30 -32 65
-60 65 -11 0 -29 -9 -40 -20z"/>
<path d="M1122 1409 c-1 -9 -15 -35 -32 -57 l-30 -42 0 -423 c0 -352 3 -432
15 -475 39 -131 175 -198 285 -142 51 26 59 40 22 40 -45 0 -134 30 -171 57
-67 51 -70 71 -72 423 -2 277 -12 663 -17 619z"/>
<path d="M980 895 c0 -237 4 -365 10 -365 6 0 10 128 10 365 0 237 -4 365 -10
365 -6 0 -10 -128 -10 -365z"/>
<path d="M985 425 c-27 -76 -70 -151 -110 -190 -25 -26 -44 -49 -42 -52 8 -7
260 -7 293 1 l31 7 -62 63 c-52 52 -67 73 -83 127 -16 50 -22 60 -27 44z"/>
</g>
</svg>
